<?xml version="1.0" standalone="no"?>
<!DOCTYPE svg PUBLIC "-//W3C//DTD SVG 20010904//EN"
 "http://www.w3.org/TR/2001/REC-SVG-20010904/DTD/svg10.dtd">
<svg version="1.0" xmlns="http://www.w3.org/2000/svg"
 width="600.000000pt" height="600.000000pt" viewBox="0 0 600.000000 600.000000"
 preserveAspectRatio="xMidYMid meet">
<metadata>
Created by potrace 1.11, written by Peter Selinger 2001-2013
</metadata>
<g transform="translate(0.000000,600.000000) scale(0.100000,-0.100000)"
fill="#000000" stroke="none">
<path d="M2947 5994 c-1 -1 -60 -4 -132 -8 -71 -3 -141 -8 -155 -10 -14 -2
-47 -7 -75 -11 -89 -12 -119 -16 -190 -31 -38 -8 -83 -17 -100 -20 -133 -26
-415 -126 -580 -205 -513 -246 -998 -671 -1282 -1124 -155 -247 -284 -562
-346 -845 -24 -108 -29 -133 -42 -227 -3 -21 -8 -49 -10 -63 -3 -14 -7 -54
-10 -90 -3 -36 -8 -82 -11 -103 -8 -56 -7 -419 1 -507 3 -41 8 -95 10 -120 8
-85 18 -157 35 -245 6 -27 12 -59 14 -70 87 -450 330 -936 635 -1269 198 -215
393 -384 624 -540 70 -47 129 -86 132 -86 3 0 24 -12 46 -26 68 -43 267 -140
374 -182 266 -106 553 -173 843 -199 151 -13 622 -6 650 11 4 2 36 7 72 10 62
7 250 45 335 68 616 167 1160 511 1532 969 276 341 480 747 586 1174 14 55 28
114 30 130 3 17 8 41 11 55 14 54 43 320 46 415 7 206 0 407 -15 510 -3 17 -7
50 -10 75 -2 25 -7 56 -10 70 -3 14 -10 52 -16 85 -58 324 -194 681 -371 974
-21 34 -38 67 -38 71 0 5 -3 10 -7 12 -5 2 -30 37 -58 78 -180 270 -421 513
-725 733 -146 105 -469 274 -661 345 -214 80 -461 143 -659 167 -25 3 -61 8
-80 10 -61 8 -387 23 -393 19z m373 -429 c19 -3 87 -15 150 -25 574 -97 1044
-386 1439 -885 280 -352 483 -798 547 -1202 3 -19 7 -45 10 -57 32 -166 37
-540 9 -736 -24 -165 -29 -190 -65 -330 -114 -447 -373 -894 -720 -1240 -264
-263 -544 -438 -882 -552 -66 -21 -127 -41 -136 -43 -9 -2 -46 -10 -82 -19
-72 -17 -100 -22 -175 -32 -27 -3 -58 -8 -69 -10 -47 -9 -204 -17 -336 -18
-446 -2 -799 92 -1215 324 -337 187 -727 560 -932 890 -145 235 -264 541 -308
795 -3 17 -8 37 -10 45 -8 30 -23 146 -34 265 -9 91 -7 519 3 565 2 14 7 48
11 75 37 318 159 672 328 953 249 415 610 763 1017 980 88 47 232 112 285 128
6 2 37 13 70 24 33 12 67 23 76 25 8 2 39 10 67 19 29 8 52 13 52 11 0 -3 11
0 24 5 13 5 44 11 67 15 24 3 51 8 59 10 19 5 85 15 170 25 73 8 526 5 580 -5z"/>
<path d="M3707 4164 c-1 -1 -36 -5 -76 -8 -41 -4 -78 -9 -81 -11 -4 -2 -22 -7
-41 -10 -225 -38 -510 -230 -732 -494 l-37 -45 0 30 c-1 16 -2 117 -3 224 -1
107 -6 201 -10 208 -5 6 -23 20 -40 29 -28 15 -72 17 -372 17 -331 0 -341 -1
-382 -22 -59 -31 -77 -62 -79 -140 -5 -153 57 -183 386 -186 l125 -1 0 -780 0
-779 -246 -1 c-230 -1 -248 -3 -290 -23 -55 -27 -81 -69 -84 -136 -4 -90 34
-154 103 -177 24 -8 281 -11 902 -11 847 -1 870 0 907 19 54 28 74 69 75 147
0 85 -23 134 -77 160 -37 18 -67 19 -477 20 l-438 1 -1 25 c0 14 -1 240 -1
502 l0 477 40 48 c50 59 230 234 297 289 220 179 454 261 618 218 27 -7 101
-39 165 -70 152 -76 204 -82 277 -32 27 18 63 53 79 77 26 39 30 54 30 115 1
86 -18 131 -80 191 -79 77 -212 123 -375 129 -44 1 -80 2 -82 0z"/>
</g>
</svg>
