<svg version="1" xmlns="http://www.w3.org/2000/svg" width="800" height="800" viewBox="0 0 600.000000 600.000000"><path d="M279.9 1c-22.3 1.4-44.1 5.2-65.6 11.4C146.9 31.8 80.6 81.8 42.8 141.7c-8.2 13-20.6 38.9-25.8 53.8-21.5 62.1-22.3 140.4-1.9 203.1 10.1 31.3 25.7 60.3 46.5 86.4 9.3 11.7 34.7 36.8 47.9 47.4C166.1 577.7 228.8 600 300 600c50.8 0 94.8-10.6 140.3-33.7 56.7-29 99.5-72.4 127.7-129.7 20.3-41.4 29.5-77.9 31.6-125.1 1.5-36.9-5-80.6-17.1-114.1-27.2-75.2-80-133.7-150.8-167.4-36.8-17.5-71.4-26.3-113.2-29-17.3-1.1-21.1-1.1-38.6 0zm55.8 43.5c53.4 7 97.5 29.2 135.4 68.1 53 54.5 80 122.7 77.6 196.3-1.5 46.9-13.3 87.1-37 126.6-36.1 60.3-87.2 100-147.7 115.1-19.8 4.9-32 6.5-55 7.1-23.1.6-37.6-.5-57-4.3-68.2-13.5-135.4-63.2-170.9-126.1-34-60.4-40.3-144.9-16.1-215.8 8.2-23.9 24.3-52.8 41.6-74.5 8.8-11 31.5-33.7 42.4-42.3 38.3-30.4 81.6-47.6 130.4-51.7 13.5-1.1 41.7-.4 56.3 1.5z"/><path d="M361.5 184.1c-28.7 3.8-56.1 19.9-79.6 46.6l-7.4 8.4-.5-22c-.5-19.7-.7-22.1-2.4-24-3.5-3.9-7.6-4.2-42.1-3.9-31.2.3-33.2.4-36.5 2.4-5.8 3.3-8 7.6-8 15.3 0 7.6 2.1 12.1 6.9 14.6 3.8 1.9 18.3 3.5 33.4 3.5H237v154.9l-25.2.3c-23 .3-25.7.5-29.2 2.3-5.8 3-7.9 6.4-8.4 13.8-.4 8.1 2.5 14.1 8.3 17.1 3.9 2.1 5.1 2.1 92 2.1 80.1 0 88.3-.2 91.7-1.7 5.3-2.4 7.2-6.6 7.2-16 .1-8.6-1.4-11.7-7.5-15.3-3.2-1.9-5.5-2-47.6-2.3l-44.3-.3V279.3l13.8-13.9c27.4-27.8 50.9-41.3 71.8-41.4 7.8 0 14.6 2.1 26.4 8 12.7 6.5 16.4 7.5 21.9 6 5.3-1.4 12.7-8 15.2-13.5 2.1-4.4 2.4-12.1.9-17.7-2.4-8.5-14.7-17.9-28-21.3-7.8-2-24.9-2.7-34.5-1.4z"/></svg>